<svg xmlns="http://www.w3.org/2000/svg" version="1.1" xmlns:xlink="http://www.w3.org/1999/xlink" xmlns:svgjs="http://svgjs.dev/svgjs" width="1000" height="1000" viewBox="0 0 1000 1000"><rect width="1000" height="1000" fill="#000000"></rect><g transform="matrix(0.7,0,0,0.7,150.0000000000001,106.25)"><svg viewBox="0 0 320 360" data-background-color="#ffffff" preserveAspectRatio="xMidYMid meet" height="1125" width="1000" xmlns="http://www.w3.org/2000/svg" xmlns:xlink="http://www.w3.org/1999/xlink"><g id="tight-bounds" transform="matrix(1,0,0,1,0,0)"><svg viewBox="0 0 320 360" height="360" width="320"><g><svg></svg></g><g><svg viewBox="0 0 320 360" height="360" width="320"><g><path xmlns="http://www.w3.org/2000/svg" d="M20.961 227.22l3.726 4.658-1.863-6.056c-0.466-2.795-3.726 0.466-1.863 1.398M25.153 224.425c1.397 2.329 2.795 4.658 2.795 6.987 0 3.261 2.795 4.658 5.123 5.589-3.261-3.726-5.124-13.974-7.918-12.576M204.017 26.929c7.918 0 15.371-0.932 23.756 0.931 20.495 5.124 37.729 15.371 49.374 29.811l32.606 52.169c1.397 13.042 4.192 27.482 3.726 43.319 3.261 0 2.795-4.658 6.521-5.59-3.726 9.316-5.59 20.961-6.521 34.469-2.329-7.453 0-18.632 0.466-24.687-3.261 5.124-5.124 1.397-5.124-0.932 0.466-3.726-1.397-3.261-2.795-4.658-5.124-4.658-8.384-9.782-12.11-17.7 2.329-6.055 2.795-14.905-4.658-19.563-2.329-1.397-5.124-3.726-6.521-7.453-1.863-5.124-5.124-11.179-4.193-19.097 0.466-2.329-6.987 5.124-11.179 1.863-18.166-12.576-36.332-27.016-58.224-39.127-11.645 0-20.029-4.192-24.221-9.316-3.726-4.658-0.932-10.713 4.658-11.179 3.261 0 6.987-0.932 9.782 0.932 0.466-1.863 2.329-4.192 4.657-4.192M157.904 16.215l0.932 0.466c4.658 0.932 6.987 7.453 12.11 5.124 0 3.261 0.466 6.521-0.466 8.85-1.397 3.726-5.59 3.726-8.85 3.726-31.208-1.863-49.374 11.179-68.471 22.358-5.124 3.261-10.713 5.59-14.906 9.782-20.029 18.632-41.921 35.866-47.045 70.335l-4.192 38.195c-0.466 4.192-5.124 8.384-4.192 13.508l3.26 22.824c-3.261-3.261-5.124 0.932-4.192 2.795 0.466 1.397 2.329 6.055 5.124 1.863 3.726 6.987 7.453 20.495 12.576 26.55 15.837 18.632 36.332 35.4 53.101 52.169 4.192-0.932 7.453-0.932 8.384-3.727 1.397 2.795-1.397 5.59-3.726 6.056 7.453 4.658 15.837 8.85 27.016 9.781 14.44 0.932 27.948 3.261 40.524 6.522 6.521-1.863 13.042-2.795 20.029-3.261 2.329 0 3.726-3.726 6.521-4.658l0.466-4.658c2.795 4.192 2.329-1.397 0.466-4.192 3.261 2.795 4.192 5.124 5.589 6.987 0-1.397 3.726-6.521 3.727-0.466l0.931-6.055c1.397-0.932 1.863 5.124 3.261 0.931 1.397-4.192 4.192-0.932 6.987-2.329-0.932 1.863-0.466 5.59 2.794 3.261l3.727-3.261c2.329 5.59 6.055 3.261 7.918 2.329 20.495-13.042 40.99-28.413 60.553-43.784l-0.466 6.055 2.329-7.453c2.329 2.329 4.192 0.466 5.124-0.931 2.795-4.658 6.521-9.316 12.577-13.508-7.453 20.029-16.303 35.866-27.482 48.908l-4.658 5.59c0 3.261-0.932 7.453-4.658 7.918-1.863 0.466-5.59-0.932-8.384 1.863-1.397 1.863 3.261 5.59-0.466 2.795-3.261-2.329-6.521 0-10.248 0.932-2.795 0.932 1.863 3.726 2.795 5.589 0.932 1.863 1.863 3.726 1.398 6.056l-5.124-5.59c-6.055 3.261-9.782 9.316-14.906 13.974-2.329 1.863-1.397 5.124-1.397 7.918-3.261 0-6.987-0.932-8.85 0.932-1.397 1.863-0.932 4.658-0.932 7.453-4.658-0.466-5.124-7.453-9.315-6.056-4.192 0.932-8.85 1.397-12.577 3.727 2.795 5.59-4.658 2.329-3.726 3.26-6.987-4.192-13.042-7.453-20.495-4.658-15.837-5.124-35.4-2.795-49.84-0.931 0-2.329 0.466-4.658-0.466-5.124-0.932 2.329-3.726 1.397-3.26 1.397-8.85-6.055-17.7-9.782-27.016-14.905-8.384 0.932-16.303-3.261-18.632-5.59-6.521-6.055-13.974-2.795-20.029-4.192-13.042-3.261-17.7-16.769-19.098-26.084-0.932-4.658-4.658-6.521-6.055-6.056-6.055-19.563-15.371-37.263-22.824-55.429-1.863-4.658-1.397-9.316-1.397-14.44 2.329 0.932 4.658 0.466 4.192-2.794-2.329-15.371-7.918-27.016-13.974-38.195 3.261-15.837 3.726-34.469 11.179-48.443 6.521-12.576 18.632-19.098 27.016-29.811 2.795-3.726 2.795-8.85 5.59-12.11 9.316-9.316 18.632-19.098 28.879-27.482 4.658-3.726 10.247 0 17.234-1.397 2.329-8.384 11.645-15.837 20.495-13.508 3.726 0.932 11.179-8.85 13.508-9.782 3.726-1.397 1.863 3.726 1.863 6.987 8.85-6.987 20.961-10.713 32.14-14.906" fill="#ffffff" fill-rule="nonzero" stroke="none" stroke-width="1" stroke-linecap="butt" stroke-linejoin="miter" stroke-miterlimit="10" stroke-dasharray="" stroke-dashoffset="0" font-family="none" font-weight="none" font-size="none" text-anchor="none" style="mix-blend-mode: normal" data-fill-palette-color="tertiary"></path></g><g transform="matrix(1,0,0,1,64.00000000000001,113.83986589418907)"><svg viewBox="0 0 191.99999999999997 132.32026821162185" height="132.32026821162185" width="191.99999999999997"><g><svg viewBox="0 0 191.99999999999997 132.32026821162185" height="132.32026821162185" width="191.99999999999997"><g><svg viewBox="0 0 192.00000000000003 132.32026821162188" height="132.32026821162185" width="191.99999999999997"><g transform="matrix(1,0,0,1,0,79.9768163469211)"><svg viewBox="0 0 192.00000000000003 52.34345186470079" height="52.34345186470079" width="192.00000000000003"><g id="textblocktransform"><svg viewBox="0 0 192.00000000000003 52.34345186470079" height="52.34345186470079" width="192.00000000000003" id="textblock"><g><svg viewBox="0 0 192.00000000000003 52.34345186470079" height="52.34345186470079" width="192.00000000000003"><g transform="matrix(1,0,0,1,0,0)"><svg width="192.00000000000003" viewBox="1.149999976158142 -37.150001525878906 172.9300079345703 47.150001525878906" height="52.34345186470079" data-palette-color="#0080ff"><path d="M24.95-30.25L15.7-30.25 15.7 0 10.4 0 10.4-30.25 1.15-30.25 1.15-34.9 24.95-34.9 24.95-30.25ZM40.85 0.6L40.85 0.6Q37.8 0.6 35.37-0.43 32.95-1.45 31.22-3.65 29.5-5.85 28.57-9.28 27.65-12.7 27.65-17.45L27.65-17.45Q27.65-22.2 28.57-25.63 29.5-29.05 31.22-31.25 32.95-33.45 35.37-34.48 37.8-35.5 40.85-35.5L40.85-35.5Q45.3-35.5 47.97-33.58 50.65-31.65 52.25-27.8L52.25-27.8 47.75-25.3Q46.85-28.25 45.22-29.55 43.6-30.85 40.85-30.85L40.85-30.85Q37.3-30.85 35.32-28.4 33.35-25.95 33.35-21.65L33.35-21.65 33.35-13.25Q33.35-8.95 35.32-6.5 37.3-4.05 40.85-4.05L40.85-4.05Q43.65-4.05 45.37-5.45 47.1-6.85 48.05-9.95L48.05-9.95 52.45-7.35Q50.8-3.5 48.05-1.45 45.3 0.6 40.85 0.6ZM57.34 0L57.34-37 62.49-37 62.49-21.7 63.09-21.7Q64.64-26.6 69.5-26.6L69.5-26.6Q73-26.6 74.92-24.23 76.84-21.85 76.84-17.25L76.84-17.25 76.84 0 71.69 0 71.69-16.55Q71.69-19.3 70.64-20.75 69.59-22.2 67.34-22.2L67.34-22.2Q65.3-22.2 63.89-20.98 62.49-19.75 62.49-17.55L62.49-17.55 62.49 0 57.34 0ZM103.59 0L100.29 0Q98.39 0 97.34-1.05 96.29-2.1 96.29-4.35L96.29-4.35 95.69-4.35Q95.14-2 93.42-0.7 91.69 0.6 89.19 0.6L89.19 0.6Q85.49 0.6 83.67-1.38 81.84-3.35 81.84-6.95L81.84-6.95Q81.84-10.85 84.34-12.9 86.84-14.95 91.69-14.95L91.69-14.95 95.99-14.95 95.99-17.45Q95.99-19.95 94.89-21.13 93.79-22.3 91.39-22.3L91.39-22.3Q89.54-22.3 88.22-21.5 86.89-20.7 85.79-18.8L85.79-18.8 82.74-21.6Q84.04-23.8 86.27-25.2 88.49-26.6 91.74-26.6L91.74-26.6Q96.44-26.6 98.79-24.33 101.14-22.05 101.14-17.65L101.14-17.65 101.14-4.25 103.59-4.25 103.59 0ZM90.89-3.4L90.89-3.4Q91.99-3.4 92.92-3.75 93.84-4.1 94.52-4.7 95.19-5.3 95.59-6.13 95.99-6.95 95.99-7.9L95.99-7.9 95.99-11.5 91.94-11.5Q87.09-11.5 87.09-8L87.09-8 87.09-6.8Q87.09-5.05 88.12-4.23 89.14-3.4 90.89-3.4ZM113.59 0L108.44 0 108.44-26 113.59-26 113.59-20.85 114.19-20.85Q114.74-23.35 116.27-24.68 117.79-26 120.14-26L120.14-26 121.44-26 121.44-20.75 119.24-20.75Q116.49-20.75 115.04-19.7 113.59-18.65 113.59-16.35L113.59-16.35 113.59 0ZM128.39-30.95L128.39-30.95Q125.29-30.95 125.29-33.6L125.29-33.6 125.29-34.5Q125.29-37.15 128.39-37.15L128.39-37.15Q131.49-37.15 131.49-34.5L131.49-34.5 131.49-33.6Q131.49-30.95 128.39-30.95ZM125.84 0L125.84-26 130.99-26 130.99 0 125.84 0ZM148.88 0L144.38 0Q141.68 0 140.46-1.2 139.23-2.4 139.23-5.1L139.23-5.1 139.23-21.75 135.63-21.75 135.63-26 137.63-26Q138.88-26 139.31-26.58 139.73-27.15 139.73-28.4L139.73-28.4 139.73-33.1 144.38-33.1 144.38-26 149.23-26 149.23-21.75 144.38-21.75 144.38-4.25 148.88-4.25 148.88 0ZM165.13-12.35L168.98-26 174.08-26 164.03 5.9Q163.63 7.1 163.16 7.9 162.68 8.7 162.01 9.18 161.33 9.65 160.38 9.83 159.43 10 158.18 10L158.18 10 154.58 10 154.58 5.75 159.28 5.75 160.48 1.4 151.83-26 157.08-26 160.98-12.35 162.78-4.45 163.33-4.45 165.13-12.35Z" opacity="1" transform="matrix(1,0,0,1,0,0)" fill="#ffffff" class="undefined-text-0" data-fill-palette-color="primary" id="text-0"></path></svg></g></svg></g></svg></g></svg></g><g transform="matrix(1,0,0,1,60.821270398474724,0)"><svg viewBox="0 0 70.35745920305058 72.3386504770165" height="72.3386504770165" width="70.35745920305058"><g><svg xmlns="http://www.w3.org/2000/svg" xmlns:xlink="http://www.w3.org/1999/xlink" version="1.1" x="0" y="0" viewBox="4 3.1160993576049805 56 57.576900482177734" style="enable-background:new 0 0 64 64;" xml:space="preserve" height="72.3386504770165" width="70.35745920305058" class="icon-icon-0" data-fill-palette-color="accent" id="icon-0"><g fill="#010c80" data-fill-palette-color="accent"><path d="M52.172 41.477L32.34 44.926l-5.633-5.633C26.52 39.105 26.266 39 26 39H16c0-0.553-0.447-1-1-1h-4H4v2h6v14H4v2h7 4c0.553 0 1-0.447 1-1h2.764l10.691 5.346c0.462 0.231 0.963 0.347 1.462 0.347 0.569 0 1.137-0.149 1.646-0.446L54.379 47.52c1-0.583 1.621-1.664 1.621-2.822 0-0.967-0.425-1.879-1.165-2.502C54.097 41.573 53.122 41.312 52.172 41.477zM14 54h-2V40h2V54zM53.371 45.792L31.556 58.519c-0.37 0.216-0.821 0.23-1.206 0.038l-10.902-5.451C19.309 53.036 19.155 53 19 53h-3V41h9.586l7.879 7.879C33.805 49.219 34 49.69 34 50.172 34 51.18 33.18 52 32.172 52c-0.481 0-0.953-0.195-1.293-0.535l-5.172-5.172-1.414 1.414 5.172 5.172C30.188 53.602 31.149 54 32.172 54 34.282 54 36 52.282 36 50.172c0-1.022-0.398-1.984-1.121-2.707l-0.81-0.81 18.444-3.208c0.371-0.067 0.747 0.037 1.034 0.279C53.835 43.968 54 44.322 54 44.697 54 45.146 53.759 45.566 53.371 45.792z" fill="#ffffff" data-fill-palette-color="accent"></path><path d="M60 10V8h-6.281C53.537 7.811 53.284 8 53 8h-4c-0.553 0-1 0-1 1h-2.764L34.544 3.5c-0.991-0.496-2.153-0.535-3.107 0.022L9.621 16.21C8.621 16.793 8 17.855 8 19.013c0 0.967 0.425 1.868 1.164 2.491 0.595 0.5 1.338 0.763 2.102 0.763 0.188 0 0.375-0.019 0.562-0.051l19.831-3.45 5.633 5.787C37.48 24.74 37.734 25 38 25h10c0 0 0.447 1 1 1h3.281c0.182 0 0.435 0 0.719 0h7v-2h-6V10H60zM38.414 23l-7.878-8.032C30.19 14.622 30 14.085 30 13.597c0-1.009 0.82-1.868 1.828-1.868 0.488 0 0.947 0.171 1.293 0.517l5.172 5.161 1.414-1.419-5.171-5.172c-0.723-0.725-1.685-1.124-2.708-1.124-2.11 0-3.828 1.717-3.828 3.828 0 1.021 0.397 1.982 1.121 2.707l0.809 0.809-18.444 3.208c-0.374 0.065-0.747-0.038-1.035-0.279C10.165 19.723 10 19.369 10 18.994c0-0.45 0.241-0.87 0.629-1.096L32.444 5.172c0.37-0.215 0.821-0.23 1.206-0.038l10.902 5.606C44.691 10.809 44.845 11 45 11h3v12H38.414zM50 10h2v14h-2V10z" fill="#ffffff" data-fill-palette-color="accent"></path><path d="M32 27.048c-1.629-1.426-4.175-1.389-5.757 0.116C25.441 27.928 25 28.946 25 30.033c0 1.086 0.441 2.104 1.243 2.867l5.067 4.824C31.504 37.908 31.752 38 32 38s0.496-0.092 0.689-0.275l5.067-4.824C38.559 32.137 39 31.119 39 30.033c0-1.087-0.441-2.105-1.243-2.869 0-0.001 0-0.001 0-0.001C36.174 25.658 33.628 25.623 32 27.048zM36.378 31.451L32 35.619l-4.378-4.168C27.222 31.069 27 30.565 27 30.032s0.221-1.038 0.622-1.42c0.431-0.41 0.997-0.615 1.562-0.615 0.566 0 1.132 0.205 1.562 0.615l0.563 0.536c0.387 0.367 0.992 0.367 1.379 0l0.563-0.536c0.861-0.82 2.262-0.819 3.125-0.001C36.779 28.994 37 29.499 37 30.032S36.778 31.069 36.378 31.451z" fill="#ffffff" data-fill-palette-color="accent"></path><path d="M20.396 24.165l-1.658-1.119c-0.398 0.59-0.76 1.21-1.073 1.841l1.791 0.891C19.729 25.225 20.046 24.683 20.396 24.165z" fill="#ffffff" data-fill-palette-color="accent"></path><path d="M16.335 35.275c0.146 0.698 0.339 1.39 0.574 2.053l1.885-0.666c-0.205-0.58-0.374-1.185-0.502-1.797L16.335 35.275z" fill="#ffffff" data-fill-palette-color="accent"></path><path d="M16.297 28.918l1.963 0.383c0.119-0.61 0.28-1.216 0.479-1.802l-1.895-0.643C16.617 27.526 16.434 28.22 16.297 28.918z" fill="#ffffff" data-fill-palette-color="accent"></path><path d="M16 32.003c0.001 0.389 0.015 0.775 0.042 1.158l1.994-0.141C18.013 32.683 18.001 32.341 18 32c0-0.284 0.008-0.566 0.025-0.847l-1.996-0.123C16.01 31.352 16 31.675 16 32.003z" fill="#ffffff" data-fill-palette-color="accent"></path><path d="M45.204 27.334c0.208 0.589 0.376 1.193 0.501 1.796l1.959-0.406c-0.144-0.69-0.337-1.381-0.573-2.054L45.204 27.334z" fill="#ffffff" data-fill-palette-color="accent"></path><path d="M43.605 39.831l1.656 1.121c0.398-0.589 0.761-1.208 1.075-1.842l-1.791-0.891C44.271 38.774 43.954 39.316 43.605 39.831z" fill="#ffffff" data-fill-palette-color="accent"></path><path d="M45.262 36.499l1.895 0.643c0.228-0.67 0.411-1.363 0.548-2.062l-1.963-0.383C45.622 35.308 45.461 35.913 45.262 36.499z" fill="#ffffff" data-fill-palette-color="accent"></path><path d="M48 32.003c0.001-0.393-0.014-0.783-0.042-1.17l-1.994 0.146C45.988 31.315 46.001 31.655 46 32c0 0.283-0.008 0.564-0.025 0.844l1.996 0.123C47.99 32.646 48 32.324 48 32.003z" fill="#ffffff" data-fill-palette-color="accent"></path></g></svg></g></svg></g><g></g></svg></g></svg></g></svg></g></svg></g><defs></defs></svg><rect width="320" height="360" fill="none" stroke="none" visibility="hidden"></rect></g></svg></g></svg>